<svg width="175" height="247" viewBox="0 0 175 247" fill="none" xmlns="http://www.w3.org/2000/svg">
<path fill-rule="evenodd" clip-rule="evenodd" d="M0.00195312 246.076H174.315V35.5824L138.838 0H0.00195312V246.076Z" fill="url(#paint0_linear_1_2336)"/>
<path fill-rule="evenodd" clip-rule="evenodd" d="M138.889 35.5293L156.555 17.78L174.315 35.5293V71.1167L138.889 35.5293Z" fill="black" fill-opacity="0.1"/>
<path fill-rule="evenodd" clip-rule="evenodd" d="M174.313 35.5583H138.887V0L174.313 35.5583Z" fill="#0080CD"/>
<g clip-path="url(#clip0_1_2336)">
<path d="M138 71.109C138 68.2981 136.012 64.8498 133.583 63.4446L91.4167 39.054C88.9877 37.6487 85.0123 37.6487 82.5833 39.054L40.4167 63.4446C37.9873 64.8496 36 68.2987 36 71.109V119.891C36 122.701 37.9877 126.15 40.4165 127.555L82.5832 151.946C85.0122 153.351 88.9875 153.351 91.4165 151.946L133.583 127.555C134.798 126.852 135.902 125.639 136.702 124.25C137.503 122.861 138 121.296 138 119.891V71.109Z" fill="#0080CD"/>
<path d="M91.4159 151.946L133.583 127.555C134.797 126.852 135.901 125.639 136.702 124.25L86.9992 95.5L37.2969 124.25C38.0972 125.639 39.2015 126.853 40.4159 127.555L82.5825 151.946C85.0115 153.351 88.9869 153.351 91.4159 151.946Z" fill="#00549E"/>
<path d="M87 129.564C68.2523 129.564 53 114.283 53 95.5C53 76.7169 68.2523 61.4358 87 61.4358C99.0973 61.4358 110.38 67.9581 116.444 78.4572L101.729 86.9879C98.6943 81.7327 93.05 78.4679 87 78.4679C77.626 78.4679 70 86.1083 70 95.5C70 104.891 77.626 112.532 87 112.532C93.0507 112.532 98.695 109.267 101.73 104.011L116.445 112.541C110.381 123.042 99.098 129.564 87 129.564Z" fill="white"/>
<path d="M120.999 93.6075H117.221V89.8228H113.444V93.6075H109.666V97.3923H113.444V101.177H117.221V97.3923H120.999V93.6075Z" fill="white"/>
<path d="M135.167 93.6075H131.389V89.8228H127.612V93.6075H123.834V97.3923H127.612V101.177H131.389V97.3923H135.167V93.6075Z" fill="white"/>
</g>
<defs>
<linearGradient id="paint0_linear_1_2336" x1="14.0722" y1="87.9391" x2="196.986" y2="202.009" gradientUnits="userSpaceOnUse">
<stop stop-color="#0080CD" stop-opacity="0.46"/>
<stop offset="1" stop-color="#470A3F" stop-opacity="0.6"/>
</linearGradient>
<clipPath id="clip0_1_2336">
<rect width="102" height="115" fill="white" transform="translate(36 38)"/>
</clipPath>
</defs>
</svg>
