<svg width="268" height="176" viewBox="0 0 268 176" fill="none" xmlns="http://www.w3.org/2000/svg">
<path d="M0 143.935H101.879V127.916H113.86V105.988H127.013V122.962L153.811 99.2902V175.896H255.69V159.892H267.668V127.916H255.69V52.8703L234.955 32.0737H153.811V56.8445L127.013 33.0725V49.8566H101.879V20.9093L81.1444 0.112793H0V143.935Z" fill="url(#paint0_linear_3_239)"/>
<path fill-rule="evenodd" clip-rule="evenodd" d="M153.813 175.896H255.692V52.8704L234.957 32.0738H153.813V175.896Z" fill="#F20036"/>
<path fill-rule="evenodd" clip-rule="evenodd" d="M234.986 52.8566L245.312 42.4843L255.691 52.8566V73.6568L234.986 52.8566Z" fill="#E10029"/>
<path fill-rule="evenodd" clip-rule="evenodd" d="M255.691 52.8744H234.985V32.0912L255.691 52.8744Z" fill="#A8000A"/>
<path fill-rule="evenodd" clip-rule="evenodd" d="M232.727 84.2565L219.826 86.6662L208.994 71.8754L213.349 61.9598L211.062 55.3309L197.617 56.2077L195.222 60.4255L202.516 72.4786L192.881 91.7073L175.244 94.994L171.706 106.718L180.688 116.031L189.724 115.921L196.909 99.4311L215.472 94.0627L220.153 101.787L230.169 100.91L235.993 88.0913L232.727 84.2565ZM201.046 60.8643L208.014 61.4667L205.347 66.7808L201.046 60.8643ZM184.553 108.36L181.45 103.923L187.655 102.115L184.553 108.36ZM201.046 90.1722L206.163 78.5044L212.042 88.1455L201.046 90.1722ZM223.528 91.7073L228.427 90.2823L225.487 94.3915L223.528 91.7073Z" fill="white"/>
<path fill-rule="evenodd" clip-rule="evenodd" d="M187.771 127.916H267.671V159.892H187.771V127.916Z" fill="#A8000A"/>
<path d="M198.956 148.325V152.304H203.065V148.325H198.956Z" fill="white"/>
<path fill-rule="evenodd" clip-rule="evenodd" d="M218.848 145.539C219.503 145.024 220.018 144.385 220.392 143.622C220.766 142.86 220.953 141.972 220.953 140.961V140.911C220.953 140.015 220.796 139.198 220.481 138.46C220.166 137.723 219.716 137.087 219.129 136.557C218.542 136.026 217.827 135.616 216.985 135.325C216.143 135.036 215.186 134.89 214.114 134.89H206.816V152.304H210.746V147.08H213.732C214.735 147.08 215.675 146.952 216.551 146.695C217.428 146.437 218.193 146.052 218.848 145.539ZM216.118 139.02C216.688 139.467 216.972 140.123 216.972 140.985V141.035C216.972 141.782 216.7 142.407 216.156 142.913C215.611 143.419 214.846 143.672 213.859 143.672H210.746V138.348H213.783C214.769 138.348 215.547 138.572 216.118 139.02Z" fill="white"/>
<path fill-rule="evenodd" clip-rule="evenodd" d="M237.681 149.793C238.523 149.013 239.174 148.093 239.633 147.031C240.093 145.97 240.322 144.825 240.322 143.597V143.548C240.322 142.32 240.093 141.18 239.633 140.127C239.174 139.073 238.523 138.158 237.681 137.377C236.839 136.599 235.835 135.989 234.67 135.549C233.504 135.11 232.224 134.89 230.829 134.89H223.863V152.304H230.829C232.224 152.304 233.504 152.081 234.67 151.633C235.835 151.186 236.839 150.572 237.681 149.793ZM235.818 141.484C236.082 142.129 236.214 142.835 236.214 143.597V143.647C236.214 144.427 236.082 145.132 235.818 145.762C235.554 146.392 235.189 146.941 234.721 147.404C234.253 147.869 233.687 148.225 233.024 148.473C232.36 148.722 231.629 148.847 230.829 148.847H227.792V138.348H230.829C231.629 138.348 232.36 138.477 233.024 138.733C233.687 138.991 234.253 139.352 234.721 139.816C235.189 140.28 235.554 140.837 235.818 141.484Z" fill="white"/>
<path d="M247.748 142.105V138.348H257.42V134.89H243.818V152.304H247.748V145.563H256.271V142.105H247.748Z" fill="white"/>
<path fill-rule="evenodd" clip-rule="evenodd" d="M130.013 33.0656V49.8497H70.9203V105.981H130.013V122.955L180.785 78.1052L130.013 33.0656Z" fill="#1B0B1C"/>
<path fill-rule="evenodd" clip-rule="evenodd" d="M145 71.6372C145 70.904 144.474 70.0044 143.831 69.6378L132.669 63.275C132.026 62.9084 130.974 62.9084 130.331 63.275L119.169 69.6378C118.526 70.0043 118 70.9041 118 71.6372V84.3629C118 84.7295 118.131 85.1378 118.343 85.5002C118.555 85.8625 118.847 86.1791 119.169 86.3623L130.331 92.7251C130.662 92.9141 131.102 93.0056 131.539 92.9998C131.632 92.9986 131.725 92.9929 131.816 92.9829C132.129 92.9485 132.428 92.8626 132.669 92.7251L143.831 86.3623C144.152 86.179 144.445 85.8625 144.656 85.5001C144.868 85.1378 145 84.7295 145 84.3629V71.6372ZM131.5 86.8865C126.537 86.8865 122.5 82.9001 122.5 78.0002C122.5 73.1002 126.537 69.1138 131.5 69.1138C134.702 69.1138 137.689 70.8153 139.294 73.5542L135.399 75.7796C134.596 74.4087 133.101 73.557 131.5 73.557C129.019 73.557 127 75.5502 127 78.0002C127 80.4501 129.019 82.4434 131.5 82.4434C133.102 82.4434 134.596 81.5917 135.399 80.2205L139.294 82.4458C137.689 85.185 134.702 86.8865 131.5 86.8865ZM140.5 77.5064H139.5V76.5191H138.5V77.5064H137.5V78.4938H138.5V79.4812H139.5V78.4938H140.5V77.5064ZM144.25 77.5064H143.25V76.5191H142.25V77.5064H141.25V78.4938H142.25V79.4812H143.25V78.4938H144.25V77.5064Z" fill="white"/>
<path fill-rule="evenodd" clip-rule="evenodd" d="M0 143.935H101.879V20.9093L81.1444 0.112793H0V143.935Z" fill="#F49400"/>
<path fill-rule="evenodd" clip-rule="evenodd" d="M81.1737 20.9135L91.4991 10.5398L101.879 20.9135V41.7131L81.1737 20.9135Z" fill="#F08400"/>
<path fill-rule="evenodd" clip-rule="evenodd" d="M101.878 20.9307H81.173V0.148229L101.878 20.9307Z" fill="#D23F00"/>
<path fill-rule="evenodd" clip-rule="evenodd" d="M16.9816 95.9407H113.86L113.86 127.916L16.9816 127.917V95.9407Z" fill="#D24000"/>
<path fill-rule="evenodd" clip-rule="evenodd" d="M73.1316 40.8857H39.5578L40.3585 49.9185H72.3311L69.9244 76.9989L51.9417 82.0073L51.9266 82.0125L33.954 76.9989L32.698 62.835H41.5043L42.1598 70.1847L51.9318 72.8362L51.9417 72.8309L61.7235 70.1795L62.7445 58.7407H32.3378L29.9662 32.0738H73.9122L73.1316 40.8857Z" fill="#FEFEFE"/>
<path d="M45.2196 120.979V113.763H38.1285V120.979H34.283V103.002H38.1285V110.116H45.2196V103.002H49.0651V120.979H45.2196Z" fill="white"/>
<path d="M25.9835 120.979V116.871H30.0034V120.979H25.9835Z" fill="white"/>
<path d="M61.0999 120.979V106.648H66.4185V103.002H51.9363V106.648H57.2547V120.979H61.0999Z" fill="white"/>
<path d="M82.9606 120.979V109.242L78.0416 116.922H77.9416L73.0728 109.32V120.979H69.2774V103.002H73.4222L78.0166 110.603L82.6108 103.002H86.7559V120.979H82.9606Z" fill="white"/>
<path d="M91.3151 103.002V120.979H103.875V117.41H95.1604V103.002H91.3151Z" fill="white"/>
<defs>
<linearGradient id="paint0_linear_3_239" x1="-41.1416" y1="14.1984" x2="166.471" y2="215.328" gradientUnits="userSpaceOnUse">
<stop stop-color="#E01A59"/>
<stop offset="1" stop-color="#460A48"/>
</linearGradient>
</defs>
</svg>
