<svg width="231" height="40" viewBox="0 0 231 40" fill="none" xmlns="http://www.w3.org/2000/svg">
<path d="M52.6888 11.1743H56.4458V28.2537H52.6888V11.1109V11.1743ZM60.6763 11.1743H68.4744C70.6213 11.1743 72.263 11.7458 73.4311 12.8886C73.9224 13.4139 74.3041 14.0329 74.5536 14.709C74.803 15.3852 74.9151 16.1047 74.8834 16.8251V16.8569C74.8834 18.2537 74.5677 19.3966 73.8731 20.2537C73.1918 21.1202 72.2846 21.7796 71.2527 22.1585L75.3885 28.2854H71.0317L67.3694 22.7934H64.4649V28.2854H60.7395V11.1109L60.6763 11.1743ZM68.2534 19.4601C69.169 19.4601 69.8636 19.2696 70.3687 18.8251C70.6143 18.6023 70.8071 18.327 70.9328 18.0193C71.0584 17.7116 71.1138 17.3794 71.0948 17.0474V17.0156C71.0948 16.1902 70.8423 15.587 70.3371 15.1743C69.8004 14.7616 69.0743 14.5394 68.1587 14.5394H64.4333V19.4601H68.2534ZM86.5647 28.5712C84.1465 28.5987 81.813 27.6761 80.0611 25.9997C79.2374 25.1928 78.588 24.2238 78.1535 23.1532C77.7189 22.0827 77.5085 20.9335 77.5354 19.7775V19.6823C77.5139 17.9297 78.0214 16.2118 78.9908 14.7552C79.9603 13.2986 81.3462 12.1719 82.9656 11.5236C84.0706 11.0791 85.2703 10.8251 86.5963 10.8251C89.0081 10.8144 91.3293 11.748 93.0684 13.4283C93.8921 14.2352 94.5415 15.2042 94.976 16.2748C95.4106 17.3454 95.621 18.4945 95.5941 19.6505V19.6823C95.6156 21.4348 95.1081 23.1528 94.1386 24.6093C93.1692 26.0659 91.7833 27.1927 90.1638 27.841C89.0237 28.3205 87.8006 28.5687 86.5647 28.5712ZM86.5647 25.0791C87.2536 25.0886 87.9371 24.9554 88.5726 24.6878C89.2081 24.4201 89.782 24.0238 90.2586 23.5235C91.1929 22.5046 91.7016 21.1633 91.6793 19.7775V19.6823C91.7096 18.2703 91.1882 16.9026 90.227 15.8728C89.7508 15.3697 89.1777 14.9695 88.5426 14.6966C87.9076 14.4237 87.2238 14.2838 86.5332 14.2855C85.8475 14.2863 85.1693 14.4274 84.5397 14.7003C83.91 14.9732 83.3423 15.3721 82.8709 15.8728C81.9174 16.8947 81.3966 18.2494 81.4186 19.6505V19.6823C81.4171 21.0891 81.9345 22.4465 82.8709 23.4918C83.3445 23.968 83.8812 24.3489 84.5126 24.6347C85.144 24.9521 85.8386 25.0791 86.5963 25.0791H86.5647ZM98.9407 11.1743H102.413L110.369 21.714V11.1743H114.032V28.2537H110.875L102.603 17.3648V28.2537H98.9091V11.1109L98.9407 11.1743Z" fill="white"/>
<path d="M117.915 11.1747H124.292C125.239 11.1747 126.123 11.3017 126.913 11.5557C127.702 11.8096 128.365 12.1588 128.933 12.6033C129.49 13.1066 129.933 13.724 130.233 14.414C130.532 15.104 130.681 15.8505 130.67 16.6033V16.635C130.67 17.5874 130.48 18.381 130.133 19.0795C129.786 19.7779 129.281 20.3493 128.681 20.8255C128.047 21.3052 127.33 21.6606 126.565 21.8731C125.745 22.1271 124.892 22.2223 123.977 22.2223H119.872V28.2541H117.915V11.1747ZM124.071 20.508C124.766 20.508 125.397 20.4128 125.966 20.2223C126.504 20.0652 127.007 19.8067 127.449 19.4604C127.853 19.132 128.176 18.7153 128.395 18.2422C128.614 17.7691 128.722 17.252 128.712 16.7303V16.6668C128.712 15.4604 128.333 14.508 127.481 13.9049C126.629 13.3017 125.524 12.9525 124.166 12.9525H119.841V20.508H124.071ZM134.174 11.1747H140.078C141.404 11.1747 142.604 11.3652 143.74 11.8096C144.845 12.2541 145.792 12.8572 146.582 13.6191C147.402 14.3887 148.051 15.3239 148.486 16.3634C148.921 17.403 149.133 18.5233 149.107 19.6509V19.7144C149.124 20.8674 148.909 22.0119 148.476 23.0795C148.043 24.1135 147.397 25.0438 146.582 25.8096C145.759 26.5907 144.794 27.2051 143.74 27.6191C142.604 28.0636 141.404 28.2541 140.078 28.2541H134.174V11.1747ZM140.078 26.4763C141.151 26.4763 142.098 26.3176 142.982 25.9683C143.801 25.6634 144.547 25.1895 145.172 24.5771C145.798 23.9648 146.288 23.2275 146.613 22.4128C146.949 21.5756 147.121 20.6808 147.118 19.7779V19.6826C147.118 18.7303 146.96 17.8731 146.613 17.0477C146.287 16.2263 145.797 15.481 145.172 14.8584C144.548 14.2358 143.802 13.7491 142.982 13.4287C142.055 13.0759 141.069 12.9036 140.078 12.9207H136.068V26.4445H140.078V26.4763ZM153.18 11.1747H165.398V12.9525H155.106V19.0477H164.325V20.7937H155.074V28.2541H153.18V11.1112V11.1747Z" fill="#E01A59"/>
<path d="M174.247 28H175.556V20.367H178.327V19.245H175.539V18.531C175.539 17.29 176.049 16.661 177.069 16.661C177.528 16.661 177.868 16.746 178.344 16.882V15.743C177.919 15.59 177.511 15.522 176.899 15.522C176.1 15.522 175.471 15.743 175.012 16.202C174.502 16.712 174.247 17.46 174.247 18.463V19.228H173.04V20.367H174.247V28Z" fill="white"/>
<path d="M183.205 28.204C185.857 28.204 187.812 26.113 187.812 23.614V23.58C187.812 21.098 185.891 19.024 183.239 19.024C180.57 19.024 178.649 21.115 178.649 23.614V23.648C178.649 26.13 180.57 28.204 183.205 28.204ZM183.239 27.031C181.386 27.031 179.992 25.501 179.992 23.614V23.58C179.992 21.727 181.301 20.18 183.205 20.18C185.058 20.18 186.469 21.727 186.469 23.614V23.648C186.469 25.484 185.143 27.031 183.239 27.031Z" fill="white"/>
<path d="M189.545 28H190.854V24.498C190.854 21.846 192.418 20.469 194.339 20.469H194.441V19.058C192.775 19.007 191.5 20.044 190.854 21.506V19.211H189.545V28Z" fill="white"/>
<path d="M205.918 28.204C208.06 28.204 209.454 27.371 210.678 26.113L209.794 25.246C208.655 26.334 207.584 26.963 205.952 26.963C203.317 26.963 201.345 24.804 201.345 22.05V22.016C201.345 19.279 203.317 17.137 205.952 17.137C207.584 17.137 208.672 17.817 209.692 18.769L210.61 17.783C209.437 16.644 208.128 15.896 205.969 15.896C202.484 15.896 199.951 18.684 199.951 22.05V22.084C199.951 25.501 202.484 28.204 205.918 28.204Z" fill="white"/>
<path d="M215.449 26.13H216.724V22.628H220.243V21.404H216.724V17.902H215.449V21.404H211.93V22.628H215.449V26.13Z" fill="white"/>
<path d="M225.437 26.13H226.712V22.628H230.231V21.404H226.712V17.902H225.437V21.404H221.918V22.628H225.437V26.13Z" fill="white"/>
<path d="M47.2929 9.11133L45.4618 15.9367H29.2341L31.0653 9.11133H47.2929Z" fill="#FDA509"/>
<path d="M18.0272 24.0321L16.2276 30.794H0L1.83113 24.0004L18.0272 24.0321Z" fill="#63C1A0"/>
<path d="M36.2745 15.9365L29.2341 15.9367L33.4963 0H40.5051L36.2745 15.9365Z" fill="#89D3DF"/>
<path d="M13.8013 40H6.79244L11.023 24.0317H18.0318L13.8013 40Z" fill="#E01A59"/>
<path d="M22.0059 9.11133L20.1748 15.9367H3.97875L5.77831 9.11133H22.0059Z" fill="#FDA509"/>
<path d="M20.1711 15.9365H13.1623L17.4244 0H24.4648L20.1711 15.9365Z" fill="#E01A59"/>
<path d="M29.8332 40H22.8243L27.0549 24.0317H34.0953L29.8332 40Z" fill="#89D3DF"/>
<path d="M43.3219 24.0315L41.5224 30.7934H25.2947L27.0627 23.9998L43.3219 24.0315Z" fill="#63C1A0"/>
<path d="M32.2702 30.7939H9.22319L15.0007 9.11133H38.0793L32.2702 30.7939Z" fill="#331433"/>
<path d="M20.366 19.062V19.0452C20.366 18.7429 20.3131 18.4686 20.2073 18.2223C20.1071 17.9704 19.9596 17.7549 19.7648 17.5758C19.5755 17.3967 19.3417 17.2595 19.0633 17.1643C18.7905 17.0636 18.4788 17.0132 18.1281 17.0132H15.7398V22.8909H17.0258V21.1276H18.0028C18.3313 21.1276 18.6374 21.0856 18.9214 21.0017C19.2109 20.9121 19.4614 20.7805 19.6729 20.607C19.89 20.4335 20.0598 20.218 20.1823 19.9605C20.3048 19.703 20.366 19.4035 20.366 19.062ZM19.0633 19.0872C19.0633 19.3391 18.9743 19.5518 18.7961 19.7253C18.618 19.8933 18.3674 19.9772 18.0446 19.9772H17.0258V18.1803H18.0195C18.3424 18.1803 18.5957 18.2559 18.7794 18.4071C18.9687 18.5582 19.0633 18.7793 19.0633 19.0704V19.0872Z" fill="white"/>
<path d="M26.7038 19.9521V19.9353C26.7038 19.521 26.6286 19.1376 26.4783 18.7849C26.328 18.4267 26.1137 18.116 25.8353 17.8529C25.5625 17.5898 25.2341 17.3855 24.85 17.2399C24.4714 17.0888 24.0539 17.0132 23.5974 17.0132H21.3177V22.8909H23.5974C24.0539 22.8909 24.4714 22.8153 24.85 22.6642C25.2341 22.5131 25.5625 22.3059 25.8353 22.0429C26.1137 21.7798 26.328 21.4691 26.4783 21.1108C26.6286 20.7525 26.7038 20.3663 26.7038 19.9521ZM25.3594 19.9689C25.3594 20.232 25.3148 20.4699 25.2257 20.6826C25.1422 20.8953 25.0225 21.08 24.8667 21.2368C24.7164 21.3935 24.5326 21.5139 24.3155 21.5978C24.0984 21.6818 23.859 21.7238 23.5974 21.7238H22.6037V18.1803H23.5974C23.859 18.1803 24.0984 18.2251 24.3155 18.3147C24.5326 18.3987 24.7164 18.519 24.8667 18.6758C25.0225 18.8325 25.1422 19.02 25.2257 19.2383C25.3148 19.4567 25.3594 19.6946 25.3594 19.9521V19.9689Z" fill="white"/>
<path d="M32.3005 18.1887V17.0132H27.8497V22.8909H29.1357V20.6154H31.9247V19.4399H29.1357V18.1887H32.3005Z" fill="white"/>
</svg>
